<mxfile host="app.diagrams.net" agent="Mozilla/5.0 (Windows NT 10.0; Win64; x64) AppleWebKit/537.36 (KHTML, like Gecko) Chrome/128.0.0.0 Safari/537.36" version="24.7.7">
  <diagram name="PÃ¡gina-1" id="enKCVdssmcHToNhDZ2BP">
    <mxGraphModel dx="1633" dy="825" grid="1" gridSize="10" guides="1" tooltips="1" connect="1" arrows="1" fold="1" page="1" pageScale="1" pageWidth="1169" pageHeight="827" math="0" shadow="0">
      <root>
        <mxCell id="0" />
        <mxCell id="1" parent="0" />
        <mxCell id="USB4y2vidUHV3w60vD6G-1" value="AWS Cloud" style="points=[[0,0],[0.25,0],[0.5,0],[0.75,0],[1,0],[1,0.25],[1,0.5],[1,0.75],[1,1],[0.75,1],[0.5,1],[0.25,1],[0,1],[0,0.75],[0,0.5],[0,0.25]];outlineConnect=0;gradientColor=none;html=1;whiteSpace=wrap;fontSize=12;fontStyle=0;container=1;pointerEvents=0;collapsible=0;recursiveResize=0;shape=mxgraph.aws4.group;grIcon=mxgraph.aws4.group_aws_cloud_alt;strokeColor=#232F3E;fillColor=none;verticalAlign=top;align=left;spacingLeft=30;fontColor=#232F3E;dashed=0;" vertex="1" parent="1">
          <mxGeometry x="50" y="80" width="1180" height="380" as="geometry" />
        </mxCell>
        <mxCell id="USB4y2vidUHV3w60vD6G-19" style="edgeStyle=orthogonalEdgeStyle;rounded=0;orthogonalLoop=1;jettySize=auto;html=1;" edge="1" parent="USB4y2vidUHV3w60vD6G-1" source="USB4y2vidUHV3w60vD6G-6" target="USB4y2vidUHV3w60vD6G-10">
          <mxGeometry relative="1" as="geometry" />
        </mxCell>
        <mxCell id="USB4y2vidUHV3w60vD6G-6" value="s3://fiap-etl/raw/&lt;div&gt;&lt;br&gt;&lt;/div&gt;" style="sketch=0;points=[[0,0,0],[0.25,0,0],[0.5,0,0],[0.75,0,0],[1,0,0],[0,1,0],[0.25,1,0],[0.5,1,0],[0.75,1,0],[1,1,0],[0,0.25,0],[0,0.5,0],[0,0.75,0],[1,0.25,0],[1,0.5,0],[1,0.75,0]];outlineConnect=0;fontColor=#232F3E;fillColor=#7AA116;strokeColor=#ffffff;dashed=0;verticalLabelPosition=bottom;verticalAlign=top;align=center;html=1;fontSize=12;fontStyle=0;aspect=fixed;shape=mxgraph.aws4.resourceIcon;resIcon=mxgraph.aws4.s3;" vertex="1" parent="USB4y2vidUHV3w60vD6G-1">
          <mxGeometry x="297" y="247.5" width="78" height="78" as="geometry" />
        </mxCell>
        <mxCell id="USB4y2vidUHV3w60vD6G-22" style="edgeStyle=orthogonalEdgeStyle;rounded=0;orthogonalLoop=1;jettySize=auto;html=1;" edge="1" parent="USB4y2vidUHV3w60vD6G-1" source="USB4y2vidUHV3w60vD6G-7" target="USB4y2vidUHV3w60vD6G-11">
          <mxGeometry relative="1" as="geometry" />
        </mxCell>
        <mxCell id="USB4y2vidUHV3w60vD6G-7" value="s3://fiap-etl/interim/&lt;div&gt;&lt;br&gt;&lt;/div&gt;" style="sketch=0;points=[[0,0,0],[0.25,0,0],[0.5,0,0],[0.75,0,0],[1,0,0],[0,1,0],[0.25,1,0],[0.5,1,0],[0.75,1,0],[1,1,0],[0,0.25,0],[0,0.5,0],[0,0.75,0],[1,0.25,0],[1,0.5,0],[1,0.75,0]];outlineConnect=0;fontColor=#232F3E;fillColor=#7AA116;strokeColor=#ffffff;dashed=0;verticalLabelPosition=bottom;verticalAlign=top;align=center;html=1;fontSize=12;fontStyle=0;aspect=fixed;shape=mxgraph.aws4.resourceIcon;resIcon=mxgraph.aws4.s3;" vertex="1" parent="USB4y2vidUHV3w60vD6G-1">
          <mxGeometry x="614" y="247.5" width="78" height="78" as="geometry" />
        </mxCell>
        <mxCell id="USB4y2vidUHV3w60vD6G-24" style="edgeStyle=orthogonalEdgeStyle;rounded=0;orthogonalLoop=1;jettySize=auto;html=1;" edge="1" parent="USB4y2vidUHV3w60vD6G-1" source="USB4y2vidUHV3w60vD6G-8" target="USB4y2vidUHV3w60vD6G-12">
          <mxGeometry relative="1" as="geometry" />
        </mxCell>
        <mxCell id="USB4y2vidUHV3w60vD6G-8" value="s3://fiap-etl/final/&lt;div&gt;&lt;br&gt;&lt;/div&gt;" style="sketch=0;points=[[0,0,0],[0.25,0,0],[0.5,0,0],[0.75,0,0],[1,0,0],[0,1,0],[0.25,1,0],[0.5,1,0],[0.75,1,0],[1,1,0],[0,0.25,0],[0,0.5,0],[0,0.75,0],[1,0.25,0],[1,0.5,0],[1,0.75,0]];outlineConnect=0;fontColor=#232F3E;fillColor=#7AA116;strokeColor=#ffffff;dashed=0;verticalLabelPosition=bottom;verticalAlign=top;align=center;html=1;fontSize=12;fontStyle=0;aspect=fixed;shape=mxgraph.aws4.resourceIcon;resIcon=mxgraph.aws4.s3;" vertex="1" parent="USB4y2vidUHV3w60vD6G-1">
          <mxGeometry x="948" y="247.5" width="78" height="78" as="geometry" />
        </mxCell>
        <mxCell id="USB4y2vidUHV3w60vD6G-11" value="tb_pet_bru_interim" style="sketch=0;outlineConnect=0;fontColor=#232F3E;gradientColor=none;fillColor=#8C4FFF;strokeColor=none;dashed=0;verticalLabelPosition=bottom;verticalAlign=top;align=center;html=1;fontSize=12;fontStyle=0;aspect=fixed;pointerEvents=1;shape=mxgraph.aws4.glue_data_catalog;" vertex="1" parent="USB4y2vidUHV3w60vD6G-1">
          <mxGeometry x="738" y="247.5" width="72" height="78" as="geometry" />
        </mxCell>
        <mxCell id="USB4y2vidUHV3w60vD6G-12" value="tb_pet_bru_final&lt;div&gt;&lt;br&gt;&lt;/div&gt;" style="sketch=0;outlineConnect=0;fontColor=#232F3E;gradientColor=none;fillColor=#8C4FFF;strokeColor=none;dashed=0;verticalLabelPosition=bottom;verticalAlign=top;align=center;html=1;fontSize=12;fontStyle=0;aspect=fixed;pointerEvents=1;shape=mxgraph.aws4.glue_data_catalog;" vertex="1" parent="USB4y2vidUHV3w60vD6G-1">
          <mxGeometry x="1068" y="247.5" width="72" height="78" as="geometry" />
        </mxCell>
        <mxCell id="USB4y2vidUHV3w60vD6G-4" value="transform" style="sketch=0;points=[[0,0,0],[0.25,0,0],[0.5,0,0],[0.75,0,0],[1,0,0],[0,1,0],[0.25,1,0],[0.5,1,0],[0.75,1,0],[1,1,0],[0,0.25,0],[0,0.5,0],[0,0.75,0],[1,0.25,0],[1,0.5,0],[1,0.75,0]];outlineConnect=0;fontColor=#232F3E;fillColor=#8C4FFF;strokeColor=#ffffff;dashed=0;verticalLabelPosition=bottom;verticalAlign=top;align=center;html=1;fontSize=12;fontStyle=0;aspect=fixed;shape=mxgraph.aws4.resourceIcon;resIcon=mxgraph.aws4.glue;" vertex="1" parent="USB4y2vidUHV3w60vD6G-1">
          <mxGeometry x="534" y="78.5" width="78" height="78" as="geometry" />
        </mxCell>
        <mxCell id="USB4y2vidUHV3w60vD6G-16" style="edgeStyle=orthogonalEdgeStyle;rounded=0;orthogonalLoop=1;jettySize=auto;html=1;" edge="1" parent="USB4y2vidUHV3w60vD6G-1" source="USB4y2vidUHV3w60vD6G-4" target="USB4y2vidUHV3w60vD6G-7">
          <mxGeometry relative="1" as="geometry" />
        </mxCell>
        <mxCell id="USB4y2vidUHV3w60vD6G-5" value="load" style="sketch=0;points=[[0,0,0],[0.25,0,0],[0.5,0,0],[0.75,0,0],[1,0,0],[0,1,0],[0.25,1,0],[0.5,1,0],[0.75,1,0],[1,1,0],[0,0.25,0],[0,0.5,0],[0,0.75,0],[1,0.25,0],[1,0.5,0],[1,0.75,0]];outlineConnect=0;fontColor=#232F3E;fillColor=#8C4FFF;strokeColor=#ffffff;dashed=0;verticalLabelPosition=bottom;verticalAlign=top;align=center;html=1;fontSize=12;fontStyle=0;aspect=fixed;shape=mxgraph.aws4.resourceIcon;resIcon=mxgraph.aws4.glue;" vertex="1" parent="USB4y2vidUHV3w60vD6G-1">
          <mxGeometry x="857" y="78.5" width="78" height="78" as="geometry" />
        </mxCell>
        <mxCell id="USB4y2vidUHV3w60vD6G-18" style="edgeStyle=orthogonalEdgeStyle;rounded=0;orthogonalLoop=1;jettySize=auto;html=1;" edge="1" parent="USB4y2vidUHV3w60vD6G-1" source="USB4y2vidUHV3w60vD6G-5" target="USB4y2vidUHV3w60vD6G-8">
          <mxGeometry relative="1" as="geometry" />
        </mxCell>
        <mxCell id="USB4y2vidUHV3w60vD6G-10" value="tb_pet_bru_raw" style="sketch=0;outlineConnect=0;fontColor=#232F3E;gradientColor=none;fillColor=#8C4FFF;strokeColor=none;dashed=0;verticalLabelPosition=bottom;verticalAlign=top;align=center;html=1;fontSize=12;fontStyle=0;aspect=fixed;pointerEvents=1;shape=mxgraph.aws4.glue_data_catalog;" vertex="1" parent="USB4y2vidUHV3w60vD6G-1">
          <mxGeometry x="417" y="247.5" width="72" height="78" as="geometry" />
        </mxCell>
        <mxCell id="USB4y2vidUHV3w60vD6G-20" style="edgeStyle=orthogonalEdgeStyle;rounded=0;orthogonalLoop=1;jettySize=auto;html=1;entryX=0;entryY=0.5;entryDx=0;entryDy=0;entryPerimeter=0;" edge="1" parent="USB4y2vidUHV3w60vD6G-1" source="USB4y2vidUHV3w60vD6G-10" target="USB4y2vidUHV3w60vD6G-4">
          <mxGeometry relative="1" as="geometry" />
        </mxCell>
        <mxCell id="USB4y2vidUHV3w60vD6G-23" style="edgeStyle=orthogonalEdgeStyle;rounded=0;orthogonalLoop=1;jettySize=auto;html=1;entryX=0;entryY=0.5;entryDx=0;entryDy=0;entryPerimeter=0;" edge="1" parent="USB4y2vidUHV3w60vD6G-1" source="USB4y2vidUHV3w60vD6G-11" target="USB4y2vidUHV3w60vD6G-5">
          <mxGeometry relative="1" as="geometry" />
        </mxCell>
        <mxCell id="USB4y2vidUHV3w60vD6G-29" value="EventBridge" style="sketch=0;points=[[0,0,0],[0.25,0,0],[0.5,0,0],[0.75,0,0],[1,0,0],[0,1,0],[0.25,1,0],[0.5,1,0],[0.75,1,0],[1,1,0],[0,0.25,0],[0,0.5,0],[0,0.75,0],[1,0.25,0],[1,0.5,0],[1,0.75,0]];outlineConnect=0;fontColor=#232F3E;fillColor=#E7157B;strokeColor=#ffffff;dashed=0;verticalLabelPosition=bottom;verticalAlign=top;align=center;html=1;fontSize=12;fontStyle=0;aspect=fixed;shape=mxgraph.aws4.resourceIcon;resIcon=mxgraph.aws4.eventbridge;" vertex="1" parent="USB4y2vidUHV3w60vD6G-1">
          <mxGeometry x="40" y="66.5" width="78" height="78" as="geometry" />
        </mxCell>
        <mxCell id="USB4y2vidUHV3w60vD6G-2" value="AWS Step Functions workflow" style="points=[[0,0],[0.25,0],[0.5,0],[0.75,0],[1,0],[1,0.25],[1,0.5],[1,0.75],[1,1],[0.75,1],[0.5,1],[0.25,1],[0,1],[0,0.75],[0,0.5],[0,0.25]];outlineConnect=0;gradientColor=none;html=1;whiteSpace=wrap;fontSize=12;fontStyle=0;container=1;pointerEvents=0;collapsible=0;recursiveResize=0;shape=mxgraph.aws4.group;grIcon=mxgraph.aws4.group_aws_step_functions_workflow;strokeColor=#CD2264;fillColor=none;verticalAlign=top;align=left;spacingLeft=30;fontColor=#CD2264;dashed=0;" vertex="1" parent="USB4y2vidUHV3w60vD6G-1">
          <mxGeometry x="167" y="36.5" width="860" height="160" as="geometry" />
        </mxCell>
        <mxCell id="USB4y2vidUHV3w60vD6G-3" value="extract" style="sketch=0;points=[[0,0,0],[0.25,0,0],[0.5,0,0],[0.75,0,0],[1,0,0],[0,1,0],[0.25,1,0],[0.5,1,0],[0.75,1,0],[1,1,0],[0,0.25,0],[0,0.5,0],[0,0.75,0],[1,0.25,0],[1,0.5,0],[1,0.75,0]];outlineConnect=0;fontColor=#232F3E;fillColor=#8C4FFF;strokeColor=#ffffff;dashed=0;verticalLabelPosition=bottom;verticalAlign=top;align=center;html=1;fontSize=12;fontStyle=0;aspect=fixed;shape=mxgraph.aws4.resourceIcon;resIcon=mxgraph.aws4.glue;" vertex="1" parent="USB4y2vidUHV3w60vD6G-2">
          <mxGeometry x="40" y="40" width="78" height="78" as="geometry" />
        </mxCell>
        <mxCell id="USB4y2vidUHV3w60vD6G-14" style="edgeStyle=orthogonalEdgeStyle;rounded=0;orthogonalLoop=1;jettySize=auto;html=1;entryX=0.5;entryY=0;entryDx=0;entryDy=0;entryPerimeter=0;exitX=1;exitY=0.5;exitDx=0;exitDy=0;exitPerimeter=0;" edge="1" parent="USB4y2vidUHV3w60vD6G-1" source="USB4y2vidUHV3w60vD6G-3" target="USB4y2vidUHV3w60vD6G-6">
          <mxGeometry relative="1" as="geometry" />
        </mxCell>
        <mxCell id="USB4y2vidUHV3w60vD6G-30" style="edgeStyle=orthogonalEdgeStyle;rounded=0;orthogonalLoop=1;jettySize=auto;html=1;" edge="1" parent="USB4y2vidUHV3w60vD6G-1" source="USB4y2vidUHV3w60vD6G-29" target="USB4y2vidUHV3w60vD6G-2">
          <mxGeometry relative="1" as="geometry">
            <Array as="points">
              <mxPoint x="160" y="105.5" />
              <mxPoint x="160" y="105.5" />
            </Array>
          </mxGeometry>
        </mxCell>
      </root>
    </mxGraphModel>
  </diagram>
</mxfile>
